<svg width="32" height="32" viewBox="0 0 32 32" fill="none" xmlns="http://www.w3.org/2000/svg">
<g clip-path="url(#clip0_1039_91)">
<path d="M28 15.9996C28 16.2648 27.8946 16.5192 27.7071 16.7067C27.5196 16.8942 27.2652 16.9996 27 16.9996H7.41374L14.7075 24.2921C14.8004 24.385 14.8741 24.4953 14.9244 24.6167C14.9747 24.7381 15.0005 24.8682 15.0005 24.9996C15.0005 25.131 14.9747 25.2611 14.9244 25.3825C14.8741 25.5039 14.8004 25.6142 14.7075 25.7071C14.6146 25.8 14.5043 25.8737 14.3829 25.924C14.2615 25.9743 14.1314 26.0001 14 26.0001C13.8686 26.0001 13.7385 25.9743 13.6171 25.924C13.4957 25.8737 13.3854 25.8 13.2925 25.7071L4.29249 16.7071C4.19952 16.6142 4.12576 16.5039 4.07543 16.3825C4.02511 16.2611 3.99921 16.131 3.99921 15.9996C3.99921 15.8682 4.02511 15.738 4.07543 15.6166C4.12576 15.4952 4.19952 15.385 4.29249 15.2921L13.2925 6.29208C13.4801 6.10444 13.7346 5.99902 14 5.99902C14.2654 5.99902 14.5199 6.10444 14.7075 6.29208C14.8951 6.47972 15.0005 6.73422 15.0005 6.99958C15.0005 7.26494 14.8951 7.51944 14.7075 7.70708L7.41374 14.9996H27C27.2652 14.9996 27.5196 15.1049 27.7071 15.2925C27.8946 15.48 28 15.7344 28 15.9996Z" fill="#464646"/>
</g>
<defs>
<clipPath id="clip0_1039_91">
<rect width="32" height="32" fill="white"/>
</clipPath>
</defs>
</svg>
