<svg width="64" height="64" viewBox="0 0 64 64" fill="none" xmlns="http://www.w3.org/2000/svg">
<g clip-path="url(#clip0_950_629)">
<path d="M13.3333 12.2773V36.7706C13.3334 38.5265 13.7669 40.2552 14.5954 41.8034C15.4239 43.3515 16.6217 44.6712 18.0827 45.6453L32 54.9253L45.9173 45.6453C47.3779 44.6715 48.5755 43.3522 49.404 41.8046C50.2325 40.2569 50.6662 38.5287 50.6667 36.7733V12.2773L32 8.13329L13.3333 12.2773ZM10.088 7.53596L32 2.66663L53.912 7.53596C54.5042 7.6676 55.0338 7.9972 55.4134 8.47037C55.793 8.94354 55.9999 9.532 56 10.1386V36.7706C55.9998 39.4046 55.3494 41.9978 54.1064 44.32C52.8634 46.6422 51.0663 48.6217 48.8747 50.0826L32 61.3333L15.1253 50.0826C12.9341 48.6219 11.1372 46.6429 9.89426 44.3212C8.6513 41.9994 8.00063 39.4068 8 36.7733V10.1386C8.0001 9.532 8.20703 8.94354 8.58664 8.47037C8.96624 7.9972 9.49583 7.6676 10.088 7.53596ZM32 36L24.1627 40.12L25.6587 31.3946L19.32 25.2133L28.0827 23.9386L32 16L35.92 23.9386L44.68 25.2133L38.3413 31.3946L39.8347 40.12L32 36Z" fill="url(#paint0_linear_950_629)"/>
</g>
<defs>
<linearGradient id="paint0_linear_950_629" x1="14.0293" y1="60.8903" x2="63.4592" y2="18.6831" gradientUnits="userSpaceOnUse">
<stop offset="0.175" stop-color="#1261E4"/>
<stop offset="0.78" stop-color="#6DB2FC"/>
</linearGradient>
<clipPath id="clip0_950_629">
<rect width="64" height="64" fill="white"/>
</clipPath>
</defs>
</svg>
