<svg width="32" height="32" viewBox="0 0 32 32" fill="none" xmlns="http://www.w3.org/2000/svg">
<path d="M5.33329 26.6667C4.59996 26.6667 3.9724 26.4058 3.45063 25.884C2.92885 25.3622 2.66751 24.7342 2.66663 24V8C2.66663 7.26667 2.92796 6.63911 3.45063 6.11734C3.97329 5.59556 4.60085 5.33422 5.33329 5.33334H26.6666C27.4 5.33334 28.028 5.59467 28.5506 6.11734C29.0733 6.64 29.3342 7.26756 29.3333 8V24C29.3333 24.7333 29.0724 25.3613 28.5506 25.884C28.0288 26.4067 27.4008 26.6676 26.6666 26.6667H5.33329ZM16 17.1C16.1111 17.1 16.228 17.0831 16.3506 17.0493C16.4733 17.0156 16.5897 16.9658 16.7 16.9L26.1333 11C26.3111 10.8889 26.4444 10.7502 26.5333 10.584C26.6222 10.4178 26.6666 10.2342 26.6666 10.0333C26.6666 9.58889 26.4777 9.25556 26.1 9.03334C25.7222 8.81111 25.3333 8.82222 24.9333 9.06667L16 14.6667L7.06663 9.06667C6.66663 8.82222 6.27774 8.81689 5.89996 9.05067C5.52218 9.28445 5.33329 9.612 5.33329 10.0333C5.33329 10.2556 5.37774 10.4502 5.46663 10.6173C5.55551 10.7844 5.68885 10.912 5.86663 11L15.3 16.9C15.4111 16.9667 15.528 17.0169 15.6506 17.0507C15.7733 17.0844 15.8897 17.1009 16 17.1Z" fill="black"/>
</svg>
