<svg width="32" height="32" viewBox="0 0 32 32" fill="none" xmlns="http://www.w3.org/2000/svg">
<path d="M16.0001 2.6665C23.3638 2.6665 29.3334 8.63609 29.3334 15.9998C29.3334 22.6549 24.4576 28.171 18.0834 29.1712V19.854H21.1902L21.7813 15.9998H18.0834V13.4988C18.0834 13.2836 18.1049 13.0695 18.1533 12.865C18.3121 12.1928 18.7608 11.6246 19.6874 11.4627C19.8601 11.4326 20.0493 11.4165 20.2563 11.4165H21.9376V8.13525C21.9376 8.13525 20.4117 7.87484 18.953 7.87484C18.953 7.87484 18.953 7.87484 18.953 7.87484C18.8579 7.87484 18.7636 7.87664 18.6706 7.88024C18.5042 7.88666 18.3412 7.89881 18.1817 7.91663C16.6462 8.08818 15.4395 8.78496 14.7072 9.95247C14.1967 10.7664 13.9167 11.8092 13.9167 13.0623V15.9998H10.5313V19.854H13.9167V29.1712C7.54258 28.171 2.66675 22.6548 2.66675 15.9998C2.66675 8.63609 8.63633 2.6665 16.0001 2.6665Z" fill="white"/>
</svg>
