<svg width="64" height="64" viewBox="0 0 64 64" fill="none" xmlns="http://www.w3.org/2000/svg">
<g clip-path="url(#clip0_507_1967)">
<path d="M13.3466 24.008C14.0539 24.008 14.7322 24.2889 15.2323 24.789C15.7324 25.2891 16.0133 25.9674 16.0133 26.6746C20.203 26.6685 24.2719 28.078 27.56 30.6746H33.3466C36.8986 30.6746 40.0933 32.2213 42.2906 34.6746H50.68C53.2007 34.6739 55.6699 35.3878 57.8014 36.7334C59.9329 38.079 61.6392 40.0013 62.7226 42.2773C56.416 50.5973 46.2053 56.008 34.68 56.008C27.24 56.008 20.9466 54.4 15.8506 51.5866C15.6634 52.101 15.3225 52.5453 14.874 52.8593C14.4256 53.1732 13.8914 53.3415 13.344 53.3413H5.34397C4.63673 53.3413 3.95845 53.0604 3.45836 52.5603C2.95826 52.0602 2.67731 51.3819 2.67731 50.6746V26.6746C2.67731 25.9674 2.95826 25.2891 3.45836 24.789C3.95845 24.2889 4.63673 24.008 5.34397 24.008H13.3466ZM16.0133 32.008V45.4L16.1333 45.4853C20.9173 48.8453 27.1546 50.6746 34.68 50.6746C42.6906 50.6746 50.1413 47.592 55.5733 42.328L55.928 41.9733L55.608 41.7066C54.3483 40.7213 52.8222 40.1361 51.2266 40.0266L50.68 40.008H45.048C45.2435 40.8666 45.3431 41.7555 45.3466 42.6746V45.3413H21.3466V40.008L39.4533 40.0053L39.3626 39.7946C38.8515 38.7271 38.0653 37.8149 37.0848 37.1517C36.1044 36.4886 34.9651 36.0984 33.784 36.0213L33.3466 36.008H25.5333C24.2922 34.7417 22.8109 33.7358 21.1763 33.0489C19.5416 32.3621 17.7864 32.0082 16.0133 32.008ZM10.68 29.3413H8.01331V48.008H10.68V29.3413ZM48.0133 13.3413C50.135 13.3413 52.1699 14.1842 53.6702 15.6845C55.1705 17.1847 56.0133 19.2196 56.0133 21.3413C56.0133 23.463 55.1705 25.4979 53.6702 26.9982C52.1699 28.4985 50.135 29.3413 48.0133 29.3413C45.8916 29.3413 43.8567 28.4985 42.3565 26.9982C40.8562 25.4979 40.0133 23.463 40.0133 21.3413C40.0133 19.2196 40.8562 17.1847 42.3565 15.6845C43.8567 14.1842 45.8916 13.3413 48.0133 13.3413ZM48.0133 18.6746C47.3061 18.6746 46.6278 18.9556 46.1277 19.4557C45.6276 19.9558 45.3466 20.6341 45.3466 21.3413C45.3466 22.0486 45.6276 22.7268 46.1277 23.2269C46.6278 23.727 47.3061 24.008 48.0133 24.008C48.7206 24.008 49.3988 23.727 49.8989 23.2269C50.399 22.7268 50.68 22.0486 50.68 21.3413C50.68 20.6341 50.399 19.9558 49.8989 19.4557C49.3988 18.9556 48.7206 18.6746 48.0133 18.6746ZM29.3466 5.34131C31.4684 5.34131 33.5032 6.18416 35.0035 7.68445C36.5038 9.18475 37.3466 11.2196 37.3466 13.3413C37.3466 15.463 36.5038 17.4979 35.0035 18.9982C33.5032 20.4985 31.4684 21.3413 29.3466 21.3413C27.2249 21.3413 25.1901 20.4985 23.6898 18.9982C22.1895 17.4979 21.3466 15.463 21.3466 13.3413C21.3466 11.2196 22.1895 9.18475 23.6898 7.68445C25.1901 6.18416 27.2249 5.34131 29.3466 5.34131ZM29.3466 10.6746C28.6394 10.6746 27.9611 10.9556 27.461 11.4557C26.9609 11.9558 26.68 12.6341 26.68 13.3413C26.68 14.0486 26.9609 14.7268 27.461 15.2269C27.9611 15.727 28.6394 16.008 29.3466 16.008C30.0539 16.008 30.7322 15.727 31.2323 15.2269C31.7324 14.7268 32.0133 14.0486 32.0133 13.3413C32.0133 12.6341 31.7324 11.9558 31.2323 11.4557C30.7322 10.9556 30.0539 10.6746 29.3466 10.6746Z" fill="#A8A8A8"/>
</g>
<defs>
<clipPath id="clip0_507_1967">
<rect width="64" height="64" fill="white"/>
</clipPath>
</defs>
</svg>
