<svg width="32" height="32" viewBox="0 0 32 32" fill="none" xmlns="http://www.w3.org/2000/svg">
<g clip-path="url(#clip0_1250_5496)">
<path fill-rule="evenodd" clip-rule="evenodd" d="M5.77049 4.00009H26.2295C26.6924 3.99639 27.138 4.17554 27.4696 4.49859C27.8011 4.82165 27.9917 5.26251 28 5.72534V26.267C27.9938 26.7312 27.8041 27.174 27.4723 27.4988C27.1406 27.8235 26.6937 28.0038 26.2295 28.0001H5.77049C5.30696 28.0048 4.86044 27.8257 4.52862 27.502C4.19681 27.1783 4.00674 26.7364 4 26.2729V5.73124C4.00571 5.26705 4.19533 4.82408 4.52725 4.49953C4.85917 4.17498 5.30629 3.99537 5.77049 4.00009ZM11.1154 12.9961H7.55281V24.459H11.1154V12.9961ZM10.4829 7.63943C10.1432 7.41237 9.74372 7.29118 9.33511 7.29118C8.78762 7.29118 8.26253 7.50853 7.87522 7.89548C7.48791 8.28242 7.27005 8.8073 7.26953 9.35478C7.26914 9.7634 7.38996 10.163 7.61669 10.5029C7.84342 10.8428 8.16588 11.1079 8.54328 11.2645C8.92068 11.4212 9.33606 11.4624 9.73687 11.3829C10.1377 11.3034 10.5059 11.1068 10.795 10.818C11.0841 10.5292 11.281 10.1612 11.3608 9.76045C11.4407 9.35971 11.3999 8.9443 11.2436 8.56675C11.0874 8.1892 10.8226 7.86648 10.4829 7.63943ZM16.7653 12.9961H13.3502V24.459H16.9069V18.7954C16.9069 17.2925 17.2177 15.8446 19.0453 15.8446C20.8728 15.8446 20.8964 17.5541 20.8964 18.882V24.459H24.459V18.164C24.459 15.0853 23.7902 12.7109 20.1823 12.7187C18.4492 12.7187 17.2885 13.6689 16.8125 14.5699H16.7653V12.9961Z" fill="white"/>
</g>
<defs>
<clipPath id="clip0_1250_5496">
<rect width="32" height="32" fill="white"/>
</clipPath>
</defs>
</svg>
