<svg width="24" height="24" viewBox="0 0 24 24" fill="none" xmlns="http://www.w3.org/2000/svg">
<g clip-path="url(#clip0_950_442)">
<path d="M19.6721 3.00007H4.32787C3.97972 2.99652 3.64438 3.13124 3.39544 3.37465C3.14649 3.61806 3.00428 3.95029 3 4.29843V19.7047C3.00505 20.0523 3.14761 20.3838 3.39647 20.6265C3.64533 20.8693 3.98022 21.0036 4.32787 21.0001H19.6721C20.0203 21.0028 20.3554 20.8677 20.6042 20.6241C20.853 20.3805 20.9953 20.0484 21 19.7002V4.294C20.9938 3.94688 20.8508 3.61624 20.6022 3.37395C20.3535 3.13165 20.0193 2.99729 19.6721 3.00007Z" fill="#0A66C2"/>
<path d="M5.66461 9.74707H8.33657V18.3443H5.66461V9.74707ZM7.00133 5.46838C7.30779 5.46838 7.60737 5.55928 7.86216 5.72957C8.11695 5.89986 8.31552 6.1419 8.43273 6.42506C8.54994 6.70822 8.58053 7.01979 8.52063 7.32034C8.46074 7.62089 8.31305 7.89692 8.09624 8.11352C7.87944 8.33012 7.60326 8.47755 7.30265 8.53716C7.00205 8.59677 6.69051 8.56588 6.40746 8.4484C6.12441 8.33092 5.88256 8.13212 5.71252 7.87717C5.54247 7.62221 5.45186 7.32255 5.45215 7.01609C5.45254 6.60548 5.61593 6.21182 5.90641 5.92161C6.1969 5.6314 6.59072 5.46838 7.00133 5.46838ZM10.0126 9.74707H12.574V10.9274H12.6094C12.9664 10.2517 13.8369 9.53904 15.1367 9.53904C17.8426 9.53314 18.3443 11.314 18.3443 13.623V18.3443H15.6723V14.1615C15.6723 13.1656 15.6546 11.8835 14.284 11.8835C12.9133 11.8835 12.6802 12.9694 12.6802 14.0966V18.3443H10.0126V9.74707Z" fill="white"/>
</g>
<defs>
<clipPath id="clip0_950_442">
<rect width="24" height="24" fill="white"/>
</clipPath>
</defs>
</svg>
