<svg width="64" height="64" viewBox="0 0 64 64" fill="none" xmlns="http://www.w3.org/2000/svg">
<g clip-path="url(#clip0_950_18)">
<path d="M53.3334 53.3333C53.3334 54.0406 53.0524 54.7188 52.5523 55.2189C52.0522 55.719 51.3739 56 50.6667 56H13.3334C12.6261 56 11.9478 55.719 11.4477 55.2189C10.9476 54.7188 10.6667 54.0406 10.6667 53.3333V29.3333H2.66669L30.2054 4.29866C30.6963 3.85193 31.3362 3.60437 32 3.60437C32.6638 3.60437 33.3037 3.85193 33.7947 4.29866L61.3334 29.3333H53.3334V53.3333ZM48 50.6667V24.4187L32 9.87466L16 24.4187V50.6667H48ZM32 45.3333L23.0427 36.376C21.9175 35.2508 21.2853 33.7246 21.2853 32.1333C21.2853 30.542 21.9175 29.0159 23.0427 27.8907C24.1679 26.7654 25.694 26.1333 27.2854 26.1333C28.8767 26.1333 30.4028 26.7654 31.528 27.8907L32 28.3627L32.472 27.8907C33.0292 27.3335 33.6906 26.8915 34.4186 26.59C35.1465 26.2885 35.9267 26.1333 36.7147 26.1333C37.5026 26.1333 38.2828 26.2885 39.0108 26.59C39.7388 26.8915 40.4002 27.3335 40.9574 27.8907C41.5145 28.4478 41.9565 29.1092 42.258 29.8372C42.5595 30.5652 42.7147 31.3454 42.7147 32.1333C42.7147 32.9213 42.5595 33.7015 42.258 34.4294C41.9565 35.1574 41.5145 35.8188 40.9574 36.376L32 45.3333Z" fill="url(#paint0_linear_950_18)"/>
</g>
<defs>
<linearGradient id="paint0_linear_950_18" x1="10.0358" y1="55.6044" x2="54.1972" y2="4" gradientUnits="userSpaceOnUse">
<stop offset="0.175" stop-color="#1261E4"/>
<stop offset="0.78" stop-color="#6DB2FC"/>
</linearGradient>
<clipPath id="clip0_950_18">
<rect width="64" height="64" fill="white"/>
</clipPath>
</defs>
</svg>
