<svg width="20" height="20" viewBox="0 0 20 20" fill="none" xmlns="http://www.w3.org/2000/svg">
<path d="M18.0781 3.46406C18.0781 3.46406 18.0781 3.47188 18.0781 3.47578L13.5312 18.4711C13.4624 18.7147 13.3207 18.9313 13.1252 19.0921C12.9297 19.2528 12.6897 19.3499 12.4374 19.3703C12.4015 19.3734 12.3656 19.375 12.3296 19.375C12.0932 19.3757 11.8615 19.3088 11.6619 19.1822C11.4623 19.0555 11.3031 18.8744 11.2031 18.6602L8.35931 12.8242C8.33086 12.7657 8.32136 12.6998 8.33214 12.6357C8.34293 12.5716 8.37345 12.5124 8.41947 12.4664L12.9445 7.94141C13.0567 7.82324 13.1184 7.6659 13.1163 7.50292C13.1142 7.33995 13.0485 7.18424 12.9333 7.06898C12.818 6.95373 12.6623 6.88806 12.4994 6.88598C12.3364 6.88389 12.179 6.94555 12.0609 7.05781L7.53353 11.5828C7.48757 11.6288 7.42839 11.6594 7.36425 11.6701C7.30011 11.6809 7.2342 11.6714 7.17572 11.643L1.33431 8.8C1.10589 8.69042 0.916158 8.51401 0.790262 8.29415C0.664365 8.0743 0.608246 7.82138 0.629342 7.56891C0.650437 7.31644 0.747752 7.07634 0.908388 6.88042C1.06903 6.68451 1.2854 6.54204 1.52884 6.47188L16.5242 1.925H16.5359C16.7494 1.86502 16.975 1.86292 17.1896 1.91891C17.4042 1.9749 17.6 2.08698 17.757 2.24363C17.9139 2.40029 18.0264 2.59588 18.0828 2.81035C18.1393 3.02482 18.1376 3.25044 18.0781 3.46406Z" fill="#F2F2F2"/>
</svg>
