<svg width="24" height="24" viewBox="0 0 24 24" fill="none" xmlns="http://www.w3.org/2000/svg">
<path d="M0 24L1.68784 17.8375C0.645113 16.0297 0.0974028 13.979 0.0999219 11.892C0.102671 5.33466 5.43895 0 11.9964 0C15.1786 0.00161686 18.1654 1.23997 20.4117 3.48789C22.658 5.73581 23.8939 8.72376 23.8928 11.9015C23.8899 18.4584 18.5528 23.794 11.9963 23.794H11.9911C10.0003 23.7932 8.04403 23.2938 6.30639 22.3463L0 24Z" fill="white"/>
<path d="M12 2.00882C6.54588 2.00882 2.11035 6.44273 2.10841 11.8927C2.10572 13.7537 2.62978 15.5774 3.62001 17.1531L3.85526 17.5271L2.85621 21.1744L6.59859 20.1931L6.95995 20.4072C8.4777 21.308 10.2179 21.7843 11.9926 21.7853H11.9963C17.4463 21.7853 21.8818 17.3509 21.8839 11.9006C21.888 10.6015 21.6344 9.31458 21.1377 8.11421C20.6411 6.91384 19.9113 5.82391 18.9905 4.90752C18.0749 3.98612 16.9856 3.25549 15.7856 2.75792C14.5857 2.26036 13.299 2.00574 12 2.00882Z" fill="url(#paint0_linear_107_1996)"/>
<path fill-rule="evenodd" clip-rule="evenodd" d="M9.02288 6.92037C8.80008 6.42545 8.56563 6.41542 8.35399 6.40685L7.7842 6.3999C7.58598 6.3999 7.2639 6.47428 6.99162 6.77178C6.71934 7.06928 5.95117 7.7883 5.95117 9.25075C5.95117 10.7132 7.01636 12.1263 7.16479 12.3249C7.31321 12.5234 9.22111 15.6202 12.2425 16.8117C14.7533 17.8018 15.2643 17.6049 15.8095 17.5554C16.3547 17.5059 17.5681 16.8364 17.8157 16.1423C18.0632 15.4482 18.0634 14.8535 17.9892 14.7291C17.915 14.6048 17.7167 14.5309 17.4192 14.3822C17.1217 14.2334 15.6606 13.5144 15.3881 13.4151C15.1157 13.3159 14.9176 13.2665 14.7192 13.564C14.5208 13.8615 13.9519 14.5308 13.7784 14.7291C13.6049 14.9275 13.4317 14.9524 13.1342 14.8038C12.8367 14.6553 11.8795 14.3413 10.7439 13.3286C9.86025 12.5407 9.26379 11.5677 9.09014 11.2704C8.91649 10.973 9.07171 10.812 9.22078 10.6639C9.35417 10.5307 9.51796 10.3167 9.66687 10.1433C9.81579 9.96976 9.86478 9.84575 9.96373 9.64769C10.0627 9.44962 10.0134 9.27565 9.93899 9.12706C9.86462 8.97847 9.28707 7.50826 9.02288 6.92037Z" fill="white"/>
<defs>
<linearGradient id="paint0_linear_107_1996" x1="11.7948" y1="3.19559" x2="11.8951" y2="20.0958" gradientUnits="userSpaceOnUse">
<stop stop-color="#57D163"/>
<stop offset="1" stop-color="#23B33A"/>
</linearGradient>
</defs>
</svg>

