<svg width="24" height="24" viewBox="0 0 24 24" fill="none" xmlns="http://www.w3.org/2000/svg">
<g clip-path="url(#clip0_507_1791)">
<g clip-path="url(#clip1_507_1791)">
<path d="M0.899994 23.1654L2.46584 17.4483C1.49848 15.7712 0.990357 13.8687 0.992694 11.9325C0.995244 5.84912 5.94584 0.900024 12.0294 0.900024C14.9815 0.901524 17.7525 2.05037 19.8364 4.13582C21.9204 6.22127 23.067 8.99327 23.0659 11.9414C23.0632 18.0243 18.1119 22.9743 12.0292 22.9743H12.0244C10.1775 22.9736 8.36264 22.5102 6.75059 21.6312L0.899994 23.1654Z" fill="white"/>
<path d="M12.0326 2.76406C6.97269 2.76406 2.85774 6.87751 2.85594 11.9336C2.85344 13.6601 3.33963 15.352 4.25829 16.8138L4.47654 17.1608L3.54969 20.5445L7.02159 19.6341L7.35684 19.8327C8.76489 20.6684 10.3793 21.1103 12.0257 21.1112H12.0292C17.0852 21.1112 21.2002 16.9973 21.2021 11.9409C21.206 10.7358 20.9707 9.5418 20.5099 8.42819C20.0492 7.31458 19.3721 6.30342 18.5179 5.45326C17.6684 4.59846 16.6578 3.92063 15.5446 3.45903C14.4314 2.99742 13.2377 2.76121 12.0326 2.76406Z" fill="url(#paint0_linear_507_1791)"/>
<path fill-rule="evenodd" clip-rule="evenodd" d="M9.27087 7.31989C9.06417 6.86074 8.84667 6.85144 8.65032 6.84349L8.12172 6.83704C7.93782 6.83704 7.63902 6.90604 7.38642 7.18204C7.13382 7.45804 6.42117 8.12509 6.42117 9.48184C6.42117 10.8386 7.40937 12.1496 7.54707 12.3338C7.68477 12.518 9.45477 15.3909 12.2578 16.4963C14.5872 17.4149 15.0612 17.2322 15.567 17.1863C16.0728 17.1404 17.1985 16.5192 17.4282 15.8753C17.6578 15.2313 17.658 14.6796 17.5891 14.5643C17.5203 14.4489 17.3364 14.3804 17.0604 14.2424C16.7844 14.1044 15.4288 13.4373 15.1761 13.3452C14.9233 13.2531 14.7396 13.2074 14.5555 13.4834C14.3715 13.7594 13.8436 14.3802 13.6827 14.5643C13.5217 14.7483 13.3611 14.7714 13.0851 14.6336C12.8091 14.4957 11.9211 14.2044 10.8675 13.265C10.0477 12.534 9.49437 11.6313 9.33327 11.3555C9.17217 11.0796 9.31617 10.9302 9.45447 10.7928C9.57822 10.6692 9.73017 10.4708 9.86832 10.3098C10.0065 10.1489 10.0519 10.0338 10.1437 9.85009C10.2355 9.66634 10.1898 9.50494 10.1208 9.36709C10.0518 9.22924 9.51597 7.86529 9.27087 7.31989Z" fill="white"/>
</g>
</g>
<defs>
<linearGradient id="paint0_linear_507_1791" x1="11.8423" y1="3.86506" x2="11.9353" y2="19.5438" gradientUnits="userSpaceOnUse">
<stop stop-color="#57D163"/>
<stop offset="1" stop-color="#23B33A"/>
</linearGradient>
<clipPath id="clip0_507_1791">
<rect width="24" height="24" fill="white"/>
</clipPath>
<clipPath id="clip1_507_1791">
<rect width="24" height="24" fill="white"/>
</clipPath>
</defs>
</svg>
