<svg width="24" height="24" viewBox="0 0 24 24" fill="none" xmlns="http://www.w3.org/2000/svg">
<g clip-path="url(#clip0_950_433)">
<g clip-path="url(#clip1_950_433)">
<path d="M0.899902 23.1654L2.46575 17.4483C1.49839 15.7712 0.990265 13.8687 0.992602 11.9325C0.995152 5.84912 5.94575 0.900024 12.0293 0.900024C14.9815 0.901524 17.7524 2.05037 19.8364 4.13582C21.9203 6.22127 23.0669 8.99327 23.0659 11.9414C23.0632 18.0243 18.1118 22.9743 12.0292 22.9743H12.0244C10.1774 22.9736 8.36255 22.5102 6.7505 21.6312L0.899902 23.1654Z" fill="white"/>
<path d="M12.0327 2.76406C6.97272 2.76406 2.85777 6.87751 2.85597 11.9336C2.85347 13.6601 3.33966 15.352 4.25832 16.8138L4.47657 17.1608L3.54972 20.5445L7.02162 19.6341L7.35687 19.8327C8.76492 20.6684 10.3794 21.1103 12.0258 21.1112H12.0292C17.0853 21.1112 21.2002 16.9973 21.2022 11.9409C21.206 10.7358 20.9707 9.5418 20.51 8.42819C20.0492 7.31458 19.3721 6.30342 18.5179 5.45326C17.6685 4.59846 16.6579 3.92063 15.5447 3.45903C14.4315 2.99742 13.2378 2.76121 12.0327 2.76406Z" fill="url(#paint0_linear_950_433)"/>
<path fill-rule="evenodd" clip-rule="evenodd" d="M9.27084 7.31989C9.06414 6.86074 8.84664 6.85144 8.65029 6.84349L8.12169 6.83704C7.93779 6.83704 7.63899 6.90604 7.38639 7.18204C7.13379 7.45804 6.42114 8.12509 6.42114 9.48184C6.42114 10.8386 7.40934 12.1496 7.54704 12.3338C7.68474 12.518 9.45474 15.3909 12.2578 16.4963C14.5871 17.4149 15.0611 17.2322 15.5669 17.1863C16.0727 17.1404 17.1985 16.5192 17.4281 15.8753C17.6578 15.2313 17.6579 14.6796 17.5891 14.5643C17.5202 14.4489 17.3363 14.3804 17.0603 14.2424C16.7843 14.1044 15.4288 13.4373 15.176 13.3452C14.9233 13.2531 14.7395 13.2074 14.5555 13.4834C14.3714 13.7594 13.8436 14.3802 13.6826 14.5643C13.5217 14.7483 13.361 14.7714 13.085 14.6336C12.809 14.4957 11.921 14.2044 10.8674 13.265C10.0477 12.534 9.49434 11.6313 9.33324 11.3555C9.17214 11.0796 9.31614 10.9302 9.45444 10.7928C9.57819 10.6692 9.73014 10.4708 9.86829 10.3098C10.0064 10.1489 10.0519 10.0338 10.1437 9.85009C10.2355 9.66634 10.1897 9.50494 10.1207 9.36709C10.0517 9.22924 9.51594 7.86529 9.27084 7.31989Z" fill="white"/>
</g>
</g>
<defs>
<linearGradient id="paint0_linear_950_433" x1="11.8423" y1="3.86506" x2="11.9353" y2="19.5438" gradientUnits="userSpaceOnUse">
<stop stop-color="#57D163"/>
<stop offset="1" stop-color="#23B33A"/>
</linearGradient>
<clipPath id="clip0_950_433">
<rect width="24" height="24" fill="white"/>
</clipPath>
<clipPath id="clip1_950_433">
<rect width="24" height="24" fill="white"/>
</clipPath>
</defs>
</svg>
