<svg width="32" height="32" viewBox="0 0 32 32" fill="none" xmlns="http://www.w3.org/2000/svg">
<path fill-rule="evenodd" clip-rule="evenodd" d="M3.28775 23.2646L1.19995 30.8874L9.00075 28.8418C11.1502 30.0138 13.5699 30.6316 16.0325 30.6326H16.039C24.1492 30.6326 30.7509 24.0326 30.7545 15.922C30.7559 11.9912 29.2271 8.2952 26.4485 5.5146C23.6699 2.734 19.9753 1.2022 16.0391 1.2002C7.92775 1.2002 1.32695 7.79899 1.32355 15.9102C1.32044 18.4917 1.99793 21.0284 3.28775 23.2646ZM3.80804 15.9116C3.81044 9.17018 9.29704 3.68558 16.0436 3.68558C17.6504 3.68178 19.242 3.99673 20.7263 4.6122C22.2106 5.22767 23.558 6.13144 24.6906 7.27118C25.8296 8.40473 26.7323 9.75293 27.3467 11.2378C27.961 12.7226 28.2747 14.3145 28.2696 15.9214C28.267 22.6632 22.7804 28.1484 16.039 28.1484H16.0344C13.8392 28.1472 11.6866 27.558 9.80924 26.4438L9.36224 26.179L4.73304 27.3928L5.96884 22.8812L5.67784 22.4186C4.45296 20.4695 3.80471 18.2136 3.80804 15.9116Z" fill="white"/>
<path fill-rule="evenodd" clip-rule="evenodd" d="M12.3611 9.76001C12.0855 9.14781 11.7955 9.13541 11.5337 9.12481L10.8289 9.11621C10.5837 9.11621 10.1853 9.20821 9.84852 9.57621C9.51172 9.94421 8.56152 10.8336 8.56152 12.6426C8.56152 14.4516 9.87912 16.1996 10.0627 16.4452C10.2463 16.6908 12.6063 20.5214 16.3437 21.9952C19.4495 23.22 20.0815 22.9764 20.7559 22.9152C21.4303 22.854 22.9313 22.0258 23.2375 21.1672C23.5437 20.3086 23.5439 19.573 23.4521 19.4192C23.3603 19.2654 23.1151 19.174 22.7471 18.99C22.3791 18.806 20.5717 17.9166 20.2347 17.7938C19.8977 17.671 19.6527 17.61 19.4073 17.978C19.1619 18.346 18.4581 19.1738 18.2435 19.4192C18.0289 19.6646 17.8147 19.6954 17.4467 19.5116C17.0787 19.3278 15.8947 18.9394 14.4899 17.6868C13.3969 16.7122 12.6591 15.5086 12.4443 15.1408C12.2295 14.773 12.4215 14.5738 12.6059 14.3906C12.7709 14.2258 12.9735 13.9612 13.1577 13.7466C13.3419 13.532 13.4025 13.3786 13.5249 13.1336C13.6473 12.8886 13.5863 12.6734 13.4943 12.4896C13.4023 12.3058 12.6879 10.4872 12.3611 9.76001Z" fill="white"/>
</svg>
