<svg width="16" height="16" viewBox="0 0 16 16" fill="none" xmlns="http://www.w3.org/2000/svg">
<rect width="16" height="16" rx="8" fill="white"/>
<path d="M12.0156 11.1714C11.3828 11.1714 10.8364 11.0366 10.3765 10.7671C9.91943 10.4976 9.56641 10.1138 9.31738 9.61572C9.07129 9.11475 8.94824 8.52002 8.94824 7.83154V7.82275C8.94824 7.13428 9.07129 6.54102 9.31738 6.04297C9.56641 5.54492 9.91943 5.16113 10.3765 4.8916C10.8335 4.62207 11.3799 4.4873 12.0156 4.4873C12.5488 4.4873 13.0234 4.59277 13.4395 4.80371C13.8584 5.01172 14.1938 5.29883 14.4458 5.66504C14.6978 6.02832 14.8384 6.44434 14.8677 6.91309L14.8721 6.99219H13.3164L13.312 6.95264C13.2827 6.73291 13.2095 6.53809 13.0923 6.36816C12.9751 6.19824 12.8242 6.06494 12.6396 5.96826C12.4551 5.87158 12.2471 5.82324 12.0156 5.82324C11.7227 5.82324 11.4692 5.90381 11.2554 6.06494C11.0444 6.22607 10.8804 6.45605 10.7632 6.75488C10.6489 7.05078 10.5918 7.40527 10.5918 7.81836V7.82715C10.5918 8.24023 10.6489 8.59766 10.7632 8.89941C10.8804 9.19824 11.0444 9.42969 11.2554 9.59375C11.4692 9.75488 11.7241 9.83545 12.02 9.83545C12.2544 9.83545 12.4609 9.79004 12.6396 9.69922C12.8213 9.6084 12.9692 9.48096 13.0835 9.31689C13.2007 9.15283 13.2769 8.9624 13.312 8.74561L13.3208 8.69287H14.8765L14.8721 8.76758C14.8369 9.23926 14.6948 9.65527 14.4458 10.0156C14.1997 10.376 13.8687 10.6587 13.4526 10.8638C13.0396 11.0688 12.5605 11.1714 12.0156 11.1714Z" fill="#2B2B2B"/>
<path d="M1.74707 11V4.65869H3.58398L5.12207 8.95654H5.20117L6.72607 4.65869H8.56738V11H7.14795V6.96582H6.35254L7.81592 4.83447L5.61865 11H4.6958L2.49854 4.83447L3.96191 6.96582H3.1665V11H1.74707Z" fill="#2B2B2B"/>
</svg>
